<?xml version="1.0" encoding="UTF-8"?>
<svg width="16px" height="16px" viewBox="0 0 16 16" version="1.1" xmlns="http://www.w3.org/2000/svg" xmlns:xlink="http://www.w3.org/1999/xlink"><script xmlns="" type="text/javascript" charset="utf-8" id="zm-extension"/>
    <!-- Generator: Sketch 47.1 (45422) - http://www.bohemiancoding.com/sketch -->
    <title>Social Icons/dribbble-icon-white</title>
    <desc>Created with Sketch.</desc>
    <defs/>
    <g id="Symbols" stroke="none" stroke-width="1" fill="none" fill-rule="evenodd">
        <g id="Social-Icons/dribbble-icon-white" fill="#FFFFFF">
            <path d="M8,16 C3.58877239,16 0,12.4112276 0,8 C0,3.58877239 3.58877239,0 8,0 C12.4112276,0 16,3.58877239 16,8 C16,12.4112276 12.4112068,16 8,16 L8,16 Z M14.7468163,9.095093 C14.5130345,9.02129787 12.6317588,8.46020907 10.4903667,8.80297514 C11.3841586,11.2589861 11.7478215,13.259434 11.8178456,13.6749952 C13.3509383,12.6384258 14.4422395,10.9964113 14.7468163,9.095093 L14.7468163,9.095093 Z M10.6691876,14.300587 C10.5675579,13.7010797 10.1708101,11.6116901 9.21147345,9.11869827 C9.19643108,9.12382351 9.18143038,9.12869874 9.16638801,9.13392815 C5.31220734,10.4769494 3.92864249,13.1497831 3.80572006,13.4011698 C5.76038343,14.9252894 8.38781401,15.2695988 10.6691876,14.300587 L10.6691876,14.300587 Z M2.9234287,12.5793397 C3.07820679,12.3143689 4.95356553,9.20924418 8.47773073,8.07010745 C8.56679046,8.04131444 8.65654466,8.01422983 8.74699335,7.98885364 C8.57546447,7.60068962 8.38864322,7.21206723 8.19300905,6.82923679 C4.78055742,7.85049299 1.4692147,7.80782433 1.17024236,7.8016782 C1.16815892,7.87105646 1.16676303,7.94060138 1.16676303,8.01047966 C1.16544564,9.69858554 1.79152676,11.3269415 2.9234287,12.5793397 L2.9234287,12.5793397 Z M1.31110312,6.61089322 C1.61672162,6.61491424 4.43208275,6.62714398 7.62833674,5.77833336 C6.49611701,3.76573902 5.2750181,2.07349303 5.09488466,1.82643978 C3.18323255,2.72814872 1.75418639,4.49046049 1.31110312,6.61089322 L1.31110312,6.61089322 Z M6.39869577,1.36714742 C6.58757963,1.62003427 7.8286378,3.31011349 8.94837779,5.36733493 C11.3781792,4.45660474 12.4068732,3.07403993 12.5297957,2.89899006 C10.8598404,1.41596164 8.56993176,0.843832703 6.39869577,1.36714742 L6.39869577,1.36714742 Z M13.2893521,3.68923543 C13.1453037,3.88418207 12.0003125,5.35200088 9.47373575,6.38350756 C9.6327432,6.70900198 9.78516701,7.04003834 9.92709033,7.37326229 C9.97738436,7.49132338 10.0264492,7.60887055 10.0742847,7.72590382 C12.3479746,7.44001542 14.6071222,7.89820356 14.8324036,7.94585163 C14.8193263,6.39238459 14.2747812,4.89021856 13.2893521,3.68923543 L13.2893521,3.68923543 Z" id="Icon"/>
        </g>
    </g>
</svg>